<?xml version="1.0" encoding="utf-8"?><!DOCTYPE svg PUBLIC "-//W3C//DTD SVG 1.1//EN" "http://www.w3.org/Graphics/SVG/1.1/DTD/svg11.dtd"><svg xmlns="http://www.w3.org/2000/svg" width="1024" height="1024" viewBox="0 0 33 33" shape-rendering="crispEdges"><path fill="#ffffff" d="M0 0h33v33H0z"/><path stroke="#0f172a" d="M2 2.5h7m1 0h3m4 0h2m1 0h3m1 0h7M2 3.5h1m5 0h1m1 0h1m5 0h2m6 0h1m5 0h1M2 4.5h1m1 0h3m1 0h1m2 0h1m3 0h3m3 0h2m1 0h1m1 0h3m1 0h1M2 5.5h1m1 0h3m1 0h1m1 0h5m4 0h2m1 0h1m1 0h1m1 0h3m1 0h1M2 6.5h1m1 0h3m1 0h1m2 0h1m1 0h3m5 0h1m2 0h1m1 0h3m1 0h1M2 7.5h1m5 0h1m2 0h2m3 0h1m2 0h3m2 0h1m5 0h1M2 8.5h7m1 0h1m1 0h1m1 0h1m1 0h1m1 0h1m1 0h1m1 0h1m1 0h7M10 9.5h2m3 0h5m2 0h1M2 10.5h1m1 0h2m1 0h3m1 0h3m1 0h6m3 0h1m2 0h1m1 0h2M2 11.5h1m2 0h2m2 0h1m4 0h1m4 0h4m1 0h3m3 0h1M3 12.5h1m4 0h1m4 0h2m1 0h1m1 0h2m2 0h1m5 0h2M3 13.5h5m2 0h1m1 0h2m1 0h2m1 0h1m1 0h4m6 0h1M2 14.5h1m3 0h4m1 0h1m5 0h1m1 0h1m2 0h1m4 0h2M2 15.5h4m1 0h1m2 0h1m3 0h2m1 0h2m2 0h1m1 0h2m3 0h3M3 16.5h1m2 0h1m1 0h3m1 0h2m2 0h1m2 0h4m1 0h2m2 0h3M5 17.5h2m2 0h1m3 0h3m1 0h1m6 0h1m4 0h1M3 18.5h3m2 0h2m3 0h2m2 0h2m2 0h3m2 0h2m1 0h1M5 19.5h3m1 0h4m1 0h2m1 0h1m1 0h1m2 0h1m2 0h1m1 0h3M2 20.5h1m1 0h1m3 0h5m4 0h3m2 0h3m1 0h1m1 0h1M4 21.5h1m1 0h2m1 0h2m2 0h1m4 0h4m1 0h2m1 0h1m1 0h1M3 22.5h2m1 0h4m1 0h1m3 0h1m4 0h9M10 23.5h1m4 0h5m2 0h1m3 0h5M2 24.5h7m1 0h1m2 0h1m1 0h1m5 0h2m1 0h1m1 0h2m1 0h1M2 25.5h1m5 0h1m1 0h3m1 0h1m2 0h1m4 0h1m3 0h2m1 0h1M2 26.5h1m1 0h3m1 0h1m2 0h1m2 0h1m1 0h1m2 0h1m2 0h5m1 0h2M2 27.5h1m1 0h3m1 0h1m1 0h2m1 0h2m1 0h3m4 0h1m1 0h3m2 0h1M2 28.5h1m1 0h3m1 0h1m1 0h1m1 0h1m2 0h2m5 0h1m2 0h1m2 0h1m1 0h1M2 29.5h1m5 0h1m3 0h2m1 0h1m1 0h1m2 0h1m1 0h2m1 0h3m1 0h1M2 30.5h7m1 0h1m1 0h1m1 0h3m3 0h1m1 0h2m1 0h1m3 0h1"/></svg>
